# picocad model
mtllib bee.mtl
o bee
v 0.75 -0.5 0.25
v 0.25 -1 0.25
v -0.25 -1 0.25
v -0.75 -0.5 0.25
v -0.75 1.5308084989342e-17 0.25
v -0.25 0.5 0.25
v 0.25 0.5 0.25
v 0.75 1.5308084989342e-17 0.25
v 0.75 -0.5 -0.5
v 0.25 -1 -0.5
v -0.25 -1 -0.5
v -0.75 -0.5 -0.5
v -0.75 -3.0616169978684e-17 -0.5
v -0.25 0.5 -0.5
v 0.25 0.5 -0.5
v 0.75 -3.0616169978684e-17 -0.5
v 0.75 -0.5 1
v 0.25 -1 1
v -0.25 -1 1
v -0.75 -0.5 1
v -0.75 6.1232339957368e-17 1
v -0.25 0.5 1
v 0.25 0.5 1
v 0.75 6.1232339957368e-17 1
v 0.5 -0.5 1.5
v 0.25 -0.75 1.25
v -0.25 -0.75 1.25
v -0.5 -0.5 1.5
v -0.25 0 1.75
v 0 0.25 1.75
v 0 0.25 1.75
v 0.25 0 1.75
v 0.5 -6.1232339957368e-17 -1
v 0.25 0.25 -1
v -0.25 0.25 -1
v -0.5 -6.1232339957368e-17 -1
v -0.5 -0.5 -1
v -0.25 -0.75 -1
v 0.25 -0.75 -1
v 0.5 -0.5 -1
v 0.25 0.25 -0.2505
v 0.5 0.9998 -0.5
v 0.5 1.75 0.25
v 0.5 0.9998 1
v 0.25 0.2498 0.7502
v -0.25 0.25 0.7505
v -0.5 1 1
v -0.5 1.75 0.25
v -0.5 0.9998 -0.5
v -0.25 0.2498 -0.2502
v -0.25 0 -1
v 0.25 0 -1
v 0.25 -0.5 -1
v -0.25 -0.5 -1
v 0 -0.25 -1.5

vt 0.125 0.875
vt 0.125 0.75
vt 0 0.75
vt 0 0.875
vt 0.125 0.875
vt 0.125 0.75
vt 0 0.75
vt 0 0.875
vt 0.125 0.875
vt 0.125 0.75
vt 0 0.75
vt 0 0.875
vt 0.125 0.875
vt 0.125 0.75
vt 0 0.75
vt 0 0.875
vt 0.125 0.875
vt 0.125 0.75
vt 0 0.75
vt 0 0.875
vt 0.125 0.875
vt 0.125 0.75
vt 0 0.75
vt 0 0.875
vt 0.125 0.875
vt 0.125 0.75
vt 0 0.75
vt 0 0.875
vt 0.125 0.875
vt 0.125 0.75
vt 0 0.75
vt 0 0.875
vt 0.25 0.75
vt 0.25 0.875
vt 0.375 0.875
vt 0.375 0.75
vt 0.375 0.875
vt 0.375 0.75
vt 0.25 0.75
vt 0.25 0.875
vt 0.375 0.875
vt 0.375 0.75
vt 0.25 0.75
vt 0.25 0.875
vt 0.375 0.875
vt 0.375 0.75
vt 0.25 0.75
vt 0.25 0.875
vt 0.3828125 0.875
vt 0.3828125 0.75
vt 0.25 0.75
vt 0.25 0.875
vt 0.3828125 0.875
vt 0.3828125 0.7421875
vt 0.25 0.7421875
vt 0.25 0.875
vt 0.3828125 0.875
vt 0.3828125 0.75
vt 0.25 0.75
vt 0.25 0.875
vt 0.375 0.875
vt 0.375 0.75
vt 0.25 0.75
vt 0.25 0.875
vt 0.78125 0.875
vt 0.84375 0.875
vt 0.84375 0.8125
vt 0.78125 0.8125
vt 0.78125 0.875
vt 0.84375 0.875
vt 0.84375 0.8125
vt 0.78125 0.8125
vt 0.78125 0.875
vt 0.84375 0.875
vt 0.84375 0.8125
vt 0.78125 0.8125
vt 0.78125 0.875
vt 0.84375 0.875
vt 0.84375 0.8125
vt 0.78125 0.8125
vt 0.125 0.65625
vt 0.125 0.71875
vt 0.1875 0.71875
vt 0.1875 0.65625
vt 0.78125 0.875
vt 0.84375 0.875
vt 0.84375 0.8125
vt 0.78125 0.8125
vt 0.125 0.71875
vt 0.1875 0.71875
vt 0.1875 0.65625
vt 0.125 0.65625
vt 0.78125 0.875
vt 0.84375 0.875
vt 0.84375 0.8125
vt 0.78125 0.8125
vt 0.03125 0.75
vt 0 0.78125
vt 0 0.84375
vt 0.03125 0.875
vt 0.09375 0.875
vt 0.125 0.84375
vt 0.125 0.78125
vt 0.09375 0.75
vt 0.5 0.84375
vt 0.5625 0.84375
vt 0.5625 0.78125
vt 0.5 0.78125
vt 0.5 0.84375
vt 0.5625 0.84375
vt 0.5625 0.78125
vt 0.5 0.78125
vt 0.5 0.84375
vt 0.5625 0.84375
vt 0.5625 0.78125
vt 0.5 0.78125
vt 0.53125 0.84375
vt 0.59375 0.84375
vt 0.59375 0.78125
vt 0.53125 0.78125
vt 0.5 0.84375
vt 0.5625 0.84375
vt 0.5625 0.78125
vt 0.5 0.78125
vt 0.5 0.84375
vt 0.5625 0.84375
vt 0.5625 0.78125
vt 0.5 0.78125
vt 0.484375 0.859375
vt 0.546875 0.859375
vt 0.546875 0.796875
vt 0.484375 0.796875
vt 0.5 0.84375
vt 0.5625 0.84375
vt 0.5625 0.78125
vt 0.5 0.78125
vt 0.5078125 0.7421875
vt 0.4765625 0.7734375
vt 0.4765625 0.8359375
vt 0.5078125 0.8671875
vt 0.5703125 0.8671875
vt 0.6015625 0.8359375
vt 0.6015625 0.7734375
vt 0.5703125 0.7421875
vt 0.25 0.8203125
vt 0.21875 0.75
vt 0.15625 0.75
vt 0.125 0.8203125
vt 0.1875 0.875
vt 0.25 0.8203125
vt 0.21875 0.75
vt 0.15625 0.75
vt 0.125 0.8203125
vt 0.1875 0.875
vt 0.25 1
vt 0.25 0.875
vt 0.125 0.875
vt 0.125 1
vt 0.1875 0.875
vt 0.25 0.7421875
vt 0.125 0.7421875
vt 0.1875 0.875
vt 0.25 0.7421875
vt 0.125 0.7421875
vt 0.1875 0.875
vt 0.25 0.7421875
vt 0.125 0.7421875
vt 0.1875 0.875
vt 0.25 0.7421875
vt 0.125 0.7421875

usemtl bee.mtl
s off
f 2/4/1 10/3/1 9/2/1 1/1/1 
f 3/8/2 11/7/2 10/6/2 2/5/2 
f 4/12/3 12/11/3 11/10/3 3/9/3 
f 5/16/4 13/15/4 12/14/4 4/13/4 
f 6/20/5 14/19/5 13/18/5 5/17/5 
f 7/24/6 15/23/6 14/22/6 6/21/6 
f 8/28/7 16/27/7 15/26/7 7/25/7 
f 1/32/8 9/31/8 16/30/8 8/29/8 
f 18/36/9 2/35/9 1/34/9 17/33/9 
f 19/40/10 3/39/10 2/38/10 18/37/10 
f 20/44/11 4/43/11 3/42/11 19/41/11 
f 21/48/12 5/47/12 4/46/12 20/45/12 
f 22/52/13 6/51/13 5/50/13 21/49/13 
f 23/56/14 7/55/14 6/54/14 22/53/14 
f 24/60/15 8/59/15 7/58/15 23/57/15 
f 17/64/16 1/63/16 8/62/16 24/61/16 
f 26/68/17 18/67/17 17/66/17 25/65/17 
f 27/72/18 19/71/18 18/70/18 26/69/18 
f 28/76/19 20/75/19 19/74/19 27/73/19 
f 29/80/20 21/79/20 20/78/20 28/77/20 
f 30/84/21 22/83/21 21/82/21 29/81/21 
f 31/88/22 23/87/22 22/86/22 30/85/22 
f 32/92/23 24/91/23 23/90/23 31/89/23 
f 25/96/24 17/95/24 24/94/24 32/93/24 
f 32/104/25 31/103/25 30/102/25 29/101/25 28/100/25 27/99/25 26/98/25 25/97/25 
f 34/108/26 15/107/26 16/106/26 33/105/26 
f 35/112/27 14/111/27 15/110/27 34/109/27 
f 36/116/28 13/115/28 14/114/28 35/113/28 
f 37/120/29 12/119/29 13/118/29 36/117/29 
f 38/124/30 11/123/30 12/122/30 37/121/30 
f 39/128/31 10/127/31 11/126/31 38/125/31 
f 40/132/32 9/131/32 10/130/32 39/129/32 
f 33/136/33 16/135/33 9/134/33 40/133/33 
f 40/144/34 39/143/34 38/142/34 37/141/34 36/140/34 35/139/34 34/138/34 33/137/34 
f 43/149/35 44/148/35 45/147/35 41/146/35 42/145/35 
f 48/154/36 49/153/36 50/152/36 46/151/36 47/150/36 
f 54/158/37 53/157/37 52/156/37 51/155/37 
f 51/161/38 52/160/38 55/159/38 
f 52/164/39 53/163/39 55/162/39 
f 53/167/40 54/166/40 55/165/40 
f 54/170/41 51/169/41 55/168/41 

